<svg width="1200" height="900" viewBox="0 0 1200 900" fill="none" xmlns="http://www.w3.org/2000/svg">
  <rect width="1200" height="900" fill="#F5FBFF"/>
  <rect x="56" y="56" width="1088" height="788" rx="28" fill="white"/>
  <rect x="96" y="96" width="132" height="40" rx="8" fill="#64CAFA"/>
  <text x="162" y="122" text-anchor="middle" font-family="Apple SD Gothic Neo, Pretendard, sans-serif" font-size="20" font-weight="700" fill="white">Couwang</text>
  <text x="96" y="210" font-family="Apple SD Gothic Neo, Pretendard, sans-serif" font-size="56" font-weight="800" fill="#1A1A1A">쿠왕</text>
  <text x="96" y="278" font-family="Apple SD Gothic Neo, Pretendard, sans-serif" font-size="34" font-weight="700" fill="#1A1A1A">Flutter 기반 쿠폰 관리 앱 프로젝트</text>
  <text x="96" y="334" font-family="Apple SD Gothic Neo, Pretendard, sans-serif" font-size="24" font-weight="500" fill="#555555">기획부터 Flutter 개발, Android 공개, 지원 문서 구성까지 직접 진행</text>
  <rect x="96" y="390" width="440" height="188" rx="20" fill="#EDF6FF" stroke="#D0ECFF"/>
  <text x="124" y="436" font-family="Apple SD Gothic Neo, Pretendard, sans-serif" font-size="22" font-weight="700" fill="#1A1A1A">핵심 포인트</text>
  <text x="124" y="484" font-family="Apple SD Gothic Neo, Pretendard, sans-serif" font-size="20" fill="#555555">• 쿠폰 / 기프티콘 / 멤버십 관리</text>
  <text x="124" y="520" font-family="Apple SD Gothic Neo, Pretendard, sans-serif" font-size="20" fill="#555555">• 로컬 알림과 OCR 기반 등록 보조</text>
  <text x="124" y="556" font-family="Apple SD Gothic Neo, Pretendard, sans-serif" font-size="20" fill="#555555">• Flutter 기반 Android 공개, iOS 확장 가능</text>
  <rect x="96" y="636" width="560" height="58" rx="12" fill="#1A1A1A"/>
  <text x="376" y="673" text-anchor="middle" font-family="Apple SD Gothic Neo, Pretendard, sans-serif" font-size="24" font-weight="700" fill="white">서비스 기획 · Flutter 개발 · Android 공개 · iOS 확장 가능</text>

  <rect x="720" y="122" width="170" height="340" rx="28" fill="#F5F5F7" stroke="#DDE8F0" stroke-width="2"/>
  <rect x="738" y="160" width="134" height="22" rx="11" fill="#64CAFA" opacity="0.9"/>
  <rect x="738" y="206" width="134" height="90" rx="16" fill="white"/>
  <rect x="738" y="314" width="134" height="22" rx="11" fill="#D9F2FF"/>
  <rect x="738" y="348" width="96" height="18" rx="9" fill="#EEF8FF"/>
  <rect x="738" y="382" width="72" height="18" rx="9" fill="#EEF8FF"/>
  <rect x="926" y="178" width="170" height="340" rx="28" fill="#F5F5F7" stroke="#DDE8F0" stroke-width="2"/>
  <rect x="944" y="220" width="134" height="76" rx="16" fill="white"/>
  <rect x="944" y="320" width="134" height="86" rx="16" fill="#FFFFFF"/>
  <rect x="956" y="336" width="110" height="38" rx="10" fill="#1A1A1A"/>
  <rect x="956" y="386" width="82" height="10" rx="5" fill="#64CAFA"/>
  <rect x="802" y="500" width="240" height="80" rx="20" fill="#1A1A1A"/>
  <text x="922" y="540" text-anchor="middle" font-family="Apple SD Gothic Neo, Pretendard, sans-serif" font-size="22" font-weight="700" fill="white">쿠폰이 사라지기 전에,</text>
  <text x="922" y="570" text-anchor="middle" font-family="Apple SD Gothic Neo, Pretendard, sans-serif" font-size="22" font-weight="700" fill="white">쿠왕이 먼저 알려드려요</text>
</svg>
